<?xml version="1.0" encoding="UTF-8"?>
<svg width="24px" height="24px" viewBox="0 0 24 24" version="1.1" xmlns="http://www.w3.org/2000/svg" xmlns:xlink="http://www.w3.org/1999/xlink">
    <title>A10</title>
    <g id="A10" stroke="none" stroke-width="1" fill="none" fill-rule="evenodd">
        <path d="M5.68989822,11.3290416 L10.3037667,7.26062308 C11.1362334,6.40356655 12.2340982,5.9739811 13.331852,5.9739811 C14.3466533,5.9739811 15.363425,6.34307886 16.1695546,7.07713138 C16.5119105,6.78315036 16.9311134,6.64340294 17.3504551,6.5120558 C18.6184155,6.11795723 18.8189558,5.66537103 19.2807866,4.62070837 C19.349627,4.46434041 19.424645,4.29749782 19.487413,4.1577504 C19.6392946,3.83039686 20.1213932,4.06388448 19.971446,4.39135231 C19.8843944,4.58108993 19.8235774,4.72082021 19.7668789,4.85008157 C19.2341678,6.05323511 19.0032385,6.57456641 17.5044043,7.0396673 C17.1783113,7.14190207 16.8238275,7.25027703 16.5504089,7.46925275 C17.2573507,8.29707976 17.6097809,9.33974236 17.6097809,10.3802049 C17.6097809,11.508356 17.1945743,12.6385357 16.3621076,13.4957351 L12.3801657,18.2690337 C11.3977794,19.4493294 10.255455,20.0916361 8.69989441,19.9894042 C7.50284186,19.9122816 6.29366141,19.3784414 5.4428502,18.5026414 C4.59203898,17.6268414 4.08177982,16.3776863 4.00881825,15.139103 C3.91569443,13.5251075 4.56581278,12.323954 5.68990377,11.3292644 L5.68989822,11.3290416 Z M10.6806469,7.65263588 L9.80360945,8.55557963 L12.2625446,11.0892623 L12.7911482,10.5470446 C12.6271249,10.209205 12.6898957,9.79847733 12.9490994,9.52938283 L14.2798084,8.1593667 C14.5391231,7.89239227 14.9401258,7.82778445 15.2682725,7.99674996 L15.7847205,7.46290397 C15.1912868,6.93531533 14.2312136,6.51824457 13.4372397,6.57247491 C12.4711165,6.57247491 11.4847061,6.94994437 10.6805192,7.65265302 L10.6806469,7.65263588 Z M12.6433934,11.4793322 L15.1023286,14.0130149 L15.979366,13.1100711 C16.663967,12.2822441 17.0306065,11.2666967 17.0306065,10.2719213 C17.006323,9.34397678 16.7612121,8.56406562 16.163671,7.85298527 L15.647223,8.38683126 C15.8112464,8.7225565 15.7465246,9.13539855 15.4872127,9.40449304 L14.1565036,10.7745092 C13.8952379,11.0414836 13.4961862,11.1060914 13.1700932,10.9371259 L12.6433934,11.4793322 Z M14.8187249,14.5008593 L9.32759699,8.84553195 L6.05223606,11.7336262 C5.35342579,12.4551926 5.0719035,13.4727401 5.13065574,14.5029166 C5.26833357,16.8822228 7.00623142,18.6859102 9.31935447,18.8362008 C10.309789,18.9008229 11.2901215,18.6130907 11.9868504,17.8957701 L14.8184474,14.5008022 L14.8187249,14.5008593 Z M9.36201021,19.4327346 C6.72887201,19.2492457 4.74397887,17.1722894 4.55137588,14.4717155 C4.53316324,14.6823253 4.53110344,14.8950436 4.5432452,15.1077934 C4.60601324,16.2150867 5.06382833,17.3307517 5.82127983,18.1127486 C6.58078502,18.8946884 7.66238679,19.3701611 8.73197169,19.4390205 C8.94467033,19.4536415 9.15530973,19.4515209 9.36192778,19.4327703 L9.36201021,19.4327346 Z M15.1062417,8.54752222 C14.9826567,8.42452678 14.7801488,8.42452678 14.6586202,8.5496428 L13.3279111,9.91965894 C13.2063853,10.0468945 13.2063853,10.2574985 13.3279111,10.3826169 C13.4514962,10.5098525 13.6560578,10.5098525 13.7775864,10.3847375 L15.1082954,9.01260703 C15.2318805,8.88537145 15.2298213,8.67273879 15.1062357,8.547649 L15.1062417,8.54752222 Z" id="Shape" fill="#FFFFFF" fill-rule="nonzero"></path>
    </g>
</svg>