<?xml version="1.0" encoding="UTF-8"?>
<svg width="24px" height="24px" viewBox="0 0 24 24" version="1.1" xmlns="http://www.w3.org/2000/svg" xmlns:xlink="http://www.w3.org/1999/xlink">
    <title>A08</title>
    <g id="A08" stroke="none" stroke-width="1" fill="none" fill-rule="evenodd">
        <g id="Group-8" transform="translate(5.000000, 3.000000)" fill="#FFFFFF" fill-rule="nonzero">
            <polygon id="Path" points="0 12.2351487 2.10539846 12.2351487 2.10539846 17 9.13294005e-16 17"></polygon>
            <polygon id="Path" points="3.95886889 10.0826869 6.06426735 10.0826869 6.06426735 17 3.95886889 17"></polygon>
            <polygon id="Path" points="7.93573265 7.13914942 10.0411311 7.13914942 10.0411311 17 7.93573265 17"></polygon>
            <polygon id="Path" points="11.8946015 4.25080326 14 4.25080326 14 17 11.8946015 17"></polygon>
            <path d="M12.092545,3.20216803 C12.272545,3.20216803 12.4344794,3.09180508 12.5063946,2.90778471 L13.352153,0.700164447 C13.4061279,0.552971147 13.388178,0.405781132 13.3161279,0.277063785 C13.2442031,0.148221601 13.1002281,0.0746890126 12.9562629,0.0746890126 L10.652921,0.0011564238 C10.4009994,-0.0171943642 10.2030495,0.18518008 10.1850868,0.442719899 C10.167124,0.700259718 10.3650868,0.902647631 10.6169955,0.921011889 L11.5167384,0.957842244 L0.809797558,8.13271487 C0.593897815,8.27990817 0.539926093,8.55581553 0.683772494,8.7766794 C0.773772494,8.90552158 0.917744216,8.97905417 1.06172879,8.97905417 C1.15172879,8.97905417 1.2236536,8.96070338 1.31365039,8.90552158 L12.0205913,1.71225185 L11.6787853,2.57678458 C11.5887853,2.81598642 11.6967349,3.07353938 11.9307069,3.16555778 C11.9846819,3.20226001 12.0386568,3.20226001 12.0926317,3.20226001 L12.092545,3.20216803 Z" id="Path"></path>
        </g>
    </g>
</svg>