<?xml version="1.0" encoding="UTF-8"?>
<svg width="32px" height="32px" viewBox="0 0 24 24" version="1.1" xmlns="http://www.w3.org/2000/svg" xmlns:xlink="http://www.w3.org/1999/xlink">
    <title>A12</title>
    <g id="A12" stroke="none" stroke-width="1" fill="none" fill-rule="evenodd">
        <g id="noun-savings-4830973" transform="translate(4.000000, 6.000000)" fill="#FFFFFF" fill-rule="nonzero">
            <path d="M15.7005365,7.906889 C15.3954431,7.57149631 14.6110871,7.94461755 13.9051987,8.24724778 L13.905288,6.62737146 L13.905288,1.65468444 C13.905288,0.580279703 11.7334292,0 9.69025448,0 C7.64707977,0 5.47522094,0.580279703 5.47522094,1.65468444 L5.47522094,6.61461456 C3.7353339,6.46262743 1.98817839,6.40959287 0.24214286,6.45586399 C0.177947083,6.45586399 0.116340989,6.48131401 0.070894694,6.52651902 C0.0255375412,6.57181286 9.23798525e-07,6.6332123 9.23798525e-07,6.69719273 L9.23798525e-07,11.0404632 C-0.000176711919,11.1046213 0.0252701159,11.1661984 0.0707164105,11.2115811 C0.116162705,11.2570526 0.177857941,11.2825915 0.24214286,11.2825915 L2.24248381,11.2825915 C5.31444579,12.3548549 11.7054524,12.5820417 15.4103208,9.40570913 C15.7039857,9.24259843 16.3948572,8.45374789 15.7003972,7.90693229 L15.7005365,7.906889 Z M2.03899134,10.8027064 L0.48445058,10.8027064 L0.48445058,6.93941446 L2.03899134,6.93941446 L2.03899134,10.8027064 Z M11.2548773,9.14446822 L11.2549665,9.14437924 C11.3435369,8.82172067 11.3146092,8.47814989 11.1734498,8.17462668 C11.6446897,8.11465101 12.1088897,8.00875958 12.5594212,7.85855159 C12.6558498,7.82580507 12.7508474,7.7873635 12.8395092,7.75105644 L12.8395092,7.75096746 C13.021203,7.67452854 13.1951391,7.5808268 13.3588856,7.47120399 C13.3810282,7.45767825 13.4010291,7.44272875 13.4203134,7.42849113 C13.4003137,7.5822574 13.4767425,8.35411847 13.3560285,8.47086693 C12.6712141,8.74110829 11.9693485,8.96606264 11.2549802,9.14438594 L11.2548773,9.14446822 Z M9.69034805,0.482757723 C12.0329476,0.511232956 13.4980723,1.1235416 13.4052735,1.73594137 L13.4053628,1.73585237 C13.3986664,1.75747578 13.3900951,1.77847637 13.3796488,1.79858672 L13.3739346,1.80855306 C13.3617025,1.83142209 13.3475967,1.85331157 13.3317911,1.87404609 L13.3267912,1.88187678 C13.1056328,2.10807721 12.8338602,2.27884432 12.5337724,2.38028449 L12.522344,2.38526766 C12.4044895,2.43011729 12.2909183,2.46784584 12.1651141,2.5062874 L12.1329728,2.51554185 C11.6770013,2.64252317 11.2105843,2.72901726 10.7391615,2.77405142 L10.7005906,2.77405142 C10.5348783,2.79184844 10.3547891,2.80110289 10.1855112,2.81177996 C9.86041811,2.8253057 9.52042232,2.8253057 9.19747774,2.81177996 C9.02747985,2.80110175 8.84811064,2.7918473 8.68095842,2.77405142 L8.64452916,2.77405142 C8.60238568,2.77405142 8.56095991,2.76550885 8.51881643,2.7598138 L8.51881643,2.75972482 C8.08917603,2.71460866 7.66426701,2.63292119 7.2485693,2.515544 C7.110715,2.47425491 6.98205831,2.43367656 6.85634558,2.38455792 L6.84563143,2.38028664 C6.7463458,2.34113205 6.65277667,2.30055598 6.55555502,2.25285883 L6.53269816,2.24004497 C6.49412721,2.22082419 6.45626939,2.20089038 6.4219841,2.17953624 L6.42207338,2.17944726 C6.41332354,2.17517597 6.40493073,2.17019281 6.39707254,2.16449776 C6.33064594,2.1254343 6.26716329,2.08165305 6.20698575,2.03351169 L6.19698588,2.02710476 C6.1655577,1.99934027 6.13698662,1.97442558 6.11055952,1.94666336 C6.09127404,1.92681977 6.0731497,1.90590733 6.05627448,1.88401785 C6.03689963,1.86212745 6.01993664,1.83827979 6.00555968,1.81282976 L6.00127401,1.79788026 C5.99109563,1.7779476 5.98270282,1.75721308 5.97627318,1.73585665 L5.9727018,1.72589032 C5.89555989,1.12996063 7.34937047,0.507674258 9.69037006,0.482757723 L9.69034805,0.482757723 Z M5.95987994,2.45572694 C5.98344994,2.47352396 6.0063068,2.48989722 6.03130763,2.50698236 C6.05630847,2.5240675 6.07702135,2.53545759 6.10273532,2.55040595 L6.10702098,2.55396535 C6.18550229,2.6033528 6.26657329,2.64855553 6.34996654,2.68922272 L6.35853787,2.69420588 C6.5960435,2.80863987 6.84298901,2.90269699 7.09647159,2.97549563 C7.22575456,3.01251343 7.36083403,3.04668371 7.50012374,3.07943023 L7.51583783,3.08370152 L7.6001225,3.10149854 L7.60797954,3.10149854 C7.72440782,3.12641551 7.84511946,3.14919569 7.96520941,3.17268662 L7.98592344,3.17268662 L8.05735112,3.18550048 L8.08877931,3.18550048 C8.99804805,3.32004482 9.92080234,3.33944443 10.835031,3.24316169 L10.8571736,3.24316169 C11.0035992,3.22750031 11.14725,3.20970215 11.2858312,3.18763498 L11.3158308,3.18763498 C11.4894012,3.15702297 11.669495,3.12641323 11.8366243,3.08797166 L11.8609098,3.0829885 C11.8694811,3.0829885 11.874481,3.0829885 11.8830523,3.07729345 C12.0201935,3.04597069 12.1538604,3.01180041 12.2802817,2.97478261 C12.4124218,2.93562802 12.5375128,2.89291517 12.6568028,2.84878084 C12.7825155,2.80108368 12.8996569,2.74982826 13.009027,2.69715136 L13.0089377,2.69706238 C13.0183126,2.6919013 13.0281338,2.68736303 13.0382219,2.68353664 L13.0439361,2.68353664 C13.1458091,2.6309463 13.2447382,2.57292745 13.3404581,2.50983772 C13.365459,2.49275258 13.389029,2.47637818 13.4118858,2.4585823 L13.4118858,3.31302155 C13.4112608,3.34229865 13.406261,3.37130694 13.396886,3.39915799 C13.3847433,3.43599811 13.3679584,3.47123678 13.3468866,3.50380562 C13.3209944,3.54100111 13.291797,3.57570444 13.2597449,3.60774022 C13.2282275,3.63995368 13.1945662,3.66994152 13.1589415,3.69743721 C13.1182289,3.73018373 13.0739414,3.76079346 13.026086,3.79211622 C13.0160862,3.79923503 13.005372,3.80493007 12.9960864,3.811337 C12.9496595,3.83981224 12.9003733,3.86828747 12.8475168,3.89605196 L12.8375169,3.90032325 L12.8375169,3.90041223 C12.7060008,3.9670625 12.5704574,4.02552557 12.4317162,4.07553491 C12.3652896,4.09902584 12.2988607,4.12180603 12.2295747,4.14245171 C12.1852896,4.15740121 12.1402913,4.17092695 12.0945776,4.1837408 L12.0688636,4.19085961 L12.0687743,4.19085961 C11.6262884,4.31027791 11.1743168,4.39169885 10.7178196,4.43440259 C10.028891,4.50194129 9.33497958,4.50194129 8.64605097,4.43440259 C8.18980519,4.39177858 7.73810792,4.31035764 7.29589625,4.19085961 L7.26946915,4.1837408 C7.22375543,4.17092695 7.17947026,4.15740235 7.1351851,4.14245171 C7.06375741,4.12180717 6.99947249,4.09973886 6.93233047,4.07553491 L6.93224119,4.07553491 C6.79367147,4.02561441 6.65841601,3.9670625 6.52714906,3.90041223 L6.52500623,3.89471718 C6.47214974,3.86695269 6.42286349,3.83847745 6.37643664,3.81000222 L6.34643701,3.79078144 C6.30215184,3.7623062 6.26072379,3.73312023 6.22286825,3.70464499 L6.21563612,3.69601335 C6.18027884,3.66851767 6.14688725,3.63852983 6.11563735,3.60631637 C6.08322633,3.57463824 6.05403126,3.53984378 6.02849558,3.50238176 C6.00983501,3.47595219 5.99429943,3.44756808 5.98206872,3.4176668 L5.97492595,3.39986978 C5.94492632,3.3770896 5.96564035,2.50271768 5.95992614,2.45572694 L5.95987994,2.45572694 Z M5.95987994,4.11251871 C6.00184285,4.14420807 6.04550403,4.17375169 6.09059375,4.20080316 C6.15630723,4.24280527 6.22773491,4.28409208 6.2991626,4.32110989 C6.37059029,4.35812769 6.45630351,4.4001298 6.54057676,4.43643458 C6.62485,4.47273937 6.71628887,4.50762267 6.80994485,4.53965617 L6.820659,4.54392745 L6.82074831,4.54401645 C7.62297837,4.80350556 8.45931088,4.94355815 9.30254616,4.95984599 L9.30897465,4.95984599 C9.5612001,4.96910044 9.81904833,4.96910044 10.0712966,4.95984599 L10.0777251,4.95984599 L10.0776359,4.95984599 C10.9209397,4.9435618 11.7572493,4.80349873 12.5594337,4.54401645 C12.6558622,4.50984617 12.7508599,4.47282837 12.8395217,4.43652131 C13.0446094,4.35047371 13.2394253,4.24182133 13.4203145,4.11251871 L13.4203145,4.96695796 C13.4197788,4.99703464 13.4145109,5.02684479 13.4046004,5.05523118 C13.3124598,5.32084817 12.8966524,5.59279804 12.1994267,5.81000712 C12.1787127,5.81570217 12.1587141,5.82282098 12.1379989,5.8292279 C11.9951435,5.86980397 11.845774,5.9075348 11.6936387,5.94028131 L11.6700687,5.94597636 C11.598641,5.96092586 11.5272133,5.97587536 11.4507846,5.98868921 L11.4456953,5.98868921 C10.2842011,6.18943961 9.09669577,6.18943961 7.93511015,5.98868921 L7.93011021,5.98868921 C7.85868252,5.97587536 7.78225375,5.96092472 7.71082606,5.94597636 L7.68725607,5.94028131 C7.51368565,5.90255277 7.34716885,5.85983992 7.18074805,5.81000598 C6.49271086,5.59991115 6.07264749,5.31872847 5.97978006,5.06946766 L5.9754944,5.05523005 C5.96594092,5.02675481 5.96058396,4.9970335 5.95978031,4.96695682 L5.95987994,4.11251871 Z M5.95987994,6.62655137 L5.95987994,5.77211212 L6.03130763,5.8226568 L6.03630757,5.8226568 C6.11202092,5.87391222 6.19487704,5.92089636 6.28060169,5.96503297 C7.77726888,6.82516727 11.6030501,6.82516727 13.0997173,5.96503297 C13.1854305,5.91804883 13.2682866,5.8710647 13.3440114,5.8226568 L13.3490113,5.8226568 L13.420439,5.77211212 C13.4011535,5.92516764 13.4754372,6.69773946 13.3554387,6.81733544 L13.355528,6.81742442 C13.3331175,6.85008209 13.3080291,6.88078067 13.2805301,6.90925591 L13.2683873,6.92278164 C13.2366917,6.9547263 13.2030304,6.98471642 13.167584,7.01247863 C13.1268714,7.04522515 13.0832994,7.07512415 13.0347285,7.10715764 C13.0242823,7.11267478 13.0142824,7.11881472 13.0047289,7.12566655 C12.958302,7.15343104 12.9090158,7.18190627 12.8561593,7.20966849 L12.8461594,7.21465165 C12.7144651,7.28103539 12.5790085,7.33958731 12.4403587,7.38986318 L12.3732167,7.41193149 C12.2853595,7.44396499 12.1939321,7.47101874 12.1031401,7.49806793 L12.0774261,7.50518674 C11.6510999,7.61988954 11.2159968,7.69926254 10.7765508,7.74223737 C10.5890537,7.63768086 10.37763,7.58322027 10.1627984,7.58419982 C6.8986102,7.63972652 7.95461998,7.24099352 5.97359308,6.70128533 C5.96564666,6.67717022 5.96109312,6.65198673 5.96002182,6.62653898 L5.95987994,6.62655137 Z M15.1227379,9.02097683 C10.1648565,12.9371188 3.6330516,11.2018152 2.52426533,10.8672426 L2.52426533,6.9397106 C5.83485292,6.95394822 6.38570324,7.27651567 6.87278293,7.56126801 C7.37286817,7.85321888 7.80723993,8.10452991 10.1790277,8.06678314 L10.1789384,8.06678314 C10.3825976,8.06500346 10.5753678,8.15790388 10.7004406,8.31807138 C10.8254401,8.47815459 10.8685642,8.68717875 10.816958,8.88347562 C10.8126723,8.9546637 10.799101,9.16831908 10.3697406,9.342018 L10.360455,9.34700117 L10.3590265,9.34700117 C9.90536354,9.52212386 8.90592448,9.67385129 6.71564302,9.39113778 L6.71555372,9.39113778 C6.65082309,9.38081562 6.58457249,9.39701074 6.53198571,9.4361651 C6.47939893,9.47531946 6.44493307,9.53396044 6.43636175,9.5988293 C6.4278798,9.66370044 6.44609374,9.72919348 6.48680684,9.7804489 C6.52761091,9.83179316 6.58742959,9.86445084 6.65269736,9.87103659 C7.9294587,10.1148529 9.24306529,10.0923416 10.5104782,9.80483281 C11.8210905,9.54331626 13.0983319,9.13735055 14.3188882,8.59436201 C14.8154077,8.38435603 15.2847734,8.18566268 15.3904863,8.27320694 C15.7361963,8.53741155 15.2883436,8.88916041 15.1225354,9.02085268 L15.1227379,9.02097683 Z M1.26325237,7.45456561 L1.26334167,7.45456561 C1.40101768,7.47752348 1.50183015,7.59631988 1.50183015,7.73539976 C1.50183015,7.87457303 1.40102682,7.99336259 1.26334167,8.01632577 C1.10709446,8.01668098 0.980030892,7.89076746 0.979687283,7.73503527 C0.979330923,7.57940103 1.10566819,7.45276598 1.26192454,7.45242427 L1.26325237,7.45456561 Z" id="Shape"></path>
        </g>
    </g>
</svg>