<svg xmlns="http://www.w3.org/2000/svg" xmlns:xlink="http://www.w3.org/1999/xlink" width="30.032520138616178" height="30.54471526813174" version="1.1"><rect id="backgroundrect" width="100%" height="100%" x="0" y="0" fill="none" stroke="none" class="" style=""/>
    <title>icon_instagramSVG</title>
    
<g class="currentLayer" style=""><title>Layer 1</title><g id="Symbols" stroke="none" stroke-width="1" fill="#ffffff" fill-rule="evenodd" class="" fill-opacity="1">
        <g id="marketplace/web/footer-copy" fill="#ffffff" fill-rule="nonzero" stroke="none" stroke-opacity="1" fill-opacity="1">
            <g id="Group-5" stroke="none" stroke-opacity="1" fill="#ffffff" fill-opacity="1">
                <g id="Group" stroke="none" stroke-opacity="1" fill="#ffffff" fill-opacity="1">
                    <g id="instagram-(1)" stroke="none" stroke-opacity="1" fill="#ffffff" fill-opacity="1">
                        <g id="svg_1" stroke="none" stroke-opacity="1" fill="#ffffff" fill-opacity="1">
                            <path d="M21.07702935155107,0.24193382263183594 L9.036791433101103,0.24193382263183594 C4.143542547944611,0.24193382263183594 0.16260161995887756,4.25546985576939 0.16260161995887756,9.18878363132038 L0.16260161995887756,21.327604479812386 C0.16260161995887756,26.260918322102313 4.143542547944611,30.274454355239868 9.036791433101103,30.274454355239868 L21.07702935155107,30.274454355239868 C25.97027830290454,30.274454355239868 29.951219230890274,26.260918322102313 29.951219230890274,21.327604479812386 L29.951219230890274,9.18878363132038 C29.951219230890274,4.25546985576939 25.97022418691585,0.24193382263183594 21.07702935155107,0.24193382263183594 zM26.954485457676654,21.327604479812386 C26.954485457676654,24.600184339720887 24.3230316290558,27.253183957590856 21.07702935155107,27.253183957590856 L9.036791433101103,27.253183957590856 C5.790789304539764,27.253183957590856 3.159335442820047,24.600184339720887 3.159335442820047,21.327604479812386 L3.159335442820047,9.18878363132038 C3.159335442820047,5.916149412549721 5.790789304539764,3.263204270335042 9.036791433101103,3.263204270335042 L21.07702935155107,3.263204270335042 C24.3230316290558,3.263204270335042 26.954485457676654,5.916149412549721 26.954485457676654,9.18878363132038 L26.954485457676654,21.327604479812386 L26.954485457676654,21.327604479812386 z" id="Shape" stroke="none" stroke-opacity="1" fill="#ffffff" fill-opacity="1"/>
                            <path d="M15.056910425424576,7.490715622014467 C10.808699383991442,7.490715622014467 7.352513932927826,10.975199591001557 7.352513932927826,15.258139579911091 C7.352513932927826,19.54107961887482 10.808699383991442,23.025617996778283 15.056910425424576,23.025617996778283 C19.305121450308278,23.025617996778283 22.761306917921324,19.541134011106447 22.761306917921324,15.258139579911091 C22.761306917921324,10.975145081976773 19.305121450308278,7.490715622014467 15.056910425424576,7.490715622014467 zM15.056910425424576,20.004402158208222 C12.456919202330239,20.004402158208222 10.349247755788994,17.879473525466608 10.349247755788994,15.258194088935852 C10.349247755788994,12.636914685774565 12.456973268671009,10.511986069717674 15.056910425424576,10.511986069717674 C17.656901681617402,10.511986069717674 19.764573144708084,12.636914685774565 19.764573144708084,15.258194088935852 C19.764573144708084,17.879418966387632 17.65684756562871,20.004402158208222 15.056910425424576,20.004402158208222 z" id="Shape" stroke="none" stroke-opacity="1" fill="#ffffff" fill-opacity="1" transform=""/>
                            <circle id="Oval" cx="22.776227486208654" cy="7.5490326589155075" r="1.8461315631866455" stroke="none" stroke-opacity="1" fill="#ffffff" fill-opacity="1"/>
                        </g>
                    </g>
                </g>
            </g>
        </g>
    </g></g></svg>