<?xml version="1.0" encoding="UTF-8"?>
<svg width="24px" height="24px" viewBox="0 0 24 24" version="1.1" xmlns="http://www.w3.org/2000/svg" xmlns:xlink="http://www.w3.org/1999/xlink">
    <title>A11</title>
    <g id="A11" stroke="none" stroke-width="1" fill="none" fill-rule="evenodd">
        <g id="Group-9" transform="translate(7.000000, 4.000000)" fill="#FFFFFF" fill-rule="nonzero">
            <path d="M2.13740647,12.4137621 C2.03787687,12.3856371 1.93150168,12.3991416 1.84163548,12.4515961 C1.24325068,12.8000224 0.825894527,13.3052763 0.822111506,13.908501 L0.822111506,13.9109563 C0.822111506,14.5935519 1.33443259,15.1210914 2.00038325,15.4631749 C2.6663339,15.8052584 3.53929365,16 4.50004172,16 C5.4607898,16 6.33341575,15.8051355 6.99939422,15.4631749 C7.66534488,15.1210914 8.17799976,14.5935233 8.17799976,13.9109563 C8.17767378,13.3052745 7.75933624,12.7964492 7.15847579,12.4465658 L7.15858444,12.4465658 C7.0687238,12.3942232 6.96234861,12.3807176 6.86270218,12.4089546 C6.76317259,12.437191 6.67863599,12.5049368 6.62767648,12.5972334 C6.57671698,12.6894213 6.5635682,12.7987949 6.59105907,12.9010314 C6.61854995,13.0032679 6.68450524,13.0902045 6.7743631,13.142547 C7.23269269,13.4093967 7.39914559,13.6946577 7.39925685,13.9112849 C7.39903955,14.1613947 7.17520469,14.4783669 6.65113677,14.7475652 C6.12685467,15.0167606 5.35561922,15.2000194 4.50015594,15.2000194 C3.64469266,15.2000194 2.87312341,15.0167606 2.34884131,14.7475652 C1.82586657,14.4789298 1.60236239,14.1628547 1.60127755,13.9128563 C1.60301607,13.697232 1.76969706,13.4129738 2.22561498,13.1475755 L2.22561498,13.1474639 C2.31547563,13.0952328 2.3815394,13.008402 2.40903027,12.9061712 C2.43662935,12.803829 2.42348169,12.6945668 2.37252135,12.6021446 C2.32156184,12.5098452 2.23702524,12.4419885 2.13738716,12.4137515 L2.13740647,12.4137621 Z" id="Path"></path>
            <path d="M4.50012517,0 C2.02207998,0 0.0038942856,2.06985729 0,4.61495517 L0,4.6156248 L0,4.62098191 L0,4.6256693 L0,4.62622733 C0.00488955373,7.74249296 2.0086447,10.7039024 3.50596969,13.6084552 C3.73056427,14.0441666 4.0713087,14.3674789 4.5017107,14.3674789 C4.93211271,14.3674789 5.27297397,14.0444809 5.49875908,13.6087694 C7.01430377,10.6833597 9.00027816,7.73823584 9,4.62225593 C9,2.07427235 6.98070165,0 4.49987483,0 L4.50012517,0 Z M4.50012517,0.800122615 C6.55995191,0.800122615 8.22139323,2.50659733 8.22139323,4.6223837 C8.22161053,7.37885165 6.35466742,10.2540617 4.81138986,13.2328996 C4.65959617,13.5259835 4.53572451,13.5676118 4.5020445,13.5676118 C4.46836171,13.5676118 4.34546918,13.526652 4.19475755,13.2341282 C2.66855921,10.2738616 0.783641528,7.37988021 0.778912753,4.62589796 L0.778912753,4.62087571 L0.778912753,4.62054091 L0.778912753,4.61652293 L0.778912753,4.61585331 C0.782498555,2.50280978 2.44277409,0.800122615 4.50018081,0.800122615 L4.50012517,0.800122615 Z" id="Shape"></path>
            <path d="M4.5006815,2.53348287 C3.38215923,2.53348287 2.46716901,3.47333396 2.46716901,4.6221837 C2.46716901,5.77106201 3.38218704,6.71088452 4.5006815,6.71088452 C5.61920377,6.71088452 6.53452779,5.77103344 6.53452779,4.6221837 C6.53452779,3.47330539 5.61920377,2.53348287 4.5006815,2.53348287 L4.5006815,2.53348287 Z M4.5006815,3.33347772 C5.19825932,3.33347772 5.75567067,3.90567403 5.75567067,4.6221837 C5.75567067,5.33869337 5.19825932,5.91088968 4.5006815,5.91088968 C3.80310368,5.91088968 3.24602613,5.33869337 3.24602613,4.6221837 C3.24602613,3.90567403 3.80310368,3.33347772 4.5006815,3.33347772 Z" id="Shape"></path>
        </g>
    </g>
</svg>