<svg xmlns="http://www.w3.org/2000/svg" xmlns:xlink="http://www.w3.org/1999/xlink" width="30.032520138616157" height="30.382113644636917" version="1.1" style=""><rect id="backgroundrect" width="100%" height="100%" x="0" y="0" fill="none" stroke="none" class="" style=""/>
    <title>icon_fbSVG</title>
    
<g class="currentLayer" style=""><title>Layer 1</title><g id="Symbols" stroke="none" stroke-width="1" fill="#ffffff" fill-rule="evenodd" class="" fill-opacity="1">
        <g id="marketplace/web/footer-copy" fill="#ffffff" fill-rule="nonzero" stroke="none" stroke-opacity="1" fill-opacity="1">
            <g id="Group-5" stroke="none" stroke-opacity="1" fill="#ffffff" fill-opacity="1">
                <g id="Group" stroke="none" stroke-opacity="1" fill="#ffffff" fill-opacity="1">
                    <g id="facebook-(1)" stroke="none" stroke-opacity="1" fill="#ffffff" fill-opacity="1">
                        <path d="M25.855740346348636,0.17096898961196438 L4.095406034822128,0.17096898961196438 C1.8785210429123727,0.17096898961196438 0.08130080997943875,1.9779128704131148 0.08130080997943875,4.206955677669336 L0.08130080997943875,26.086055382167203 C0.08130080997943875,28.315098189423423 1.8784481766438064,30.122188548327784 4.095406034822128,30.122188548327784 L14.827499086154074,30.122188548327784 L14.845789727647288,19.419149025470592 L12.08025814207194,19.419149025470592 C11.720857825175852,19.419149025470592 11.429154756579564,19.126954744799953 11.427770214731142,18.76559527757201 L11.41450766020147,15.315608842619952 C11.413123118353424,14.952271113979734 11.705700631820054,14.656999694930324 12.067068470359892,14.656999694930324 L14.82757195242264,14.656999694930324 L14.82757195242264,11.323436612245803 C14.82757195242264,7.454868073120551 17.17744670512704,5.348403211041166 20.60974898307845,5.348403211041166 L23.42621743329613,5.348403211041166 C23.78656504478132,5.348403211041166 24.078778309651533,5.642136002662716 24.078778309651533,6.004521215962703 L24.078778309651533,8.913567526714136 C24.078778309651533,9.275806211992222 23.786783660136454,9.56946573960281 23.426581847385002,9.56968554827524 L21.698151922976216,9.570491502314436 C19.831558418272486,9.570491502314436 19.470117564521065,10.462313774431333 19.470117564521065,11.771106192724332 L19.470117564521065,14.657072958941274 L23.571668136920554,14.657072958941274 C23.962475933851827,14.657072958941274 24.265692617590304,15.000188622509437 24.219638090824947,15.390415823928553 L23.812944520599,18.84040227552019 C23.774031318429387,19.170549410450324 23.49559082091183,19.41929545365511 23.164974566694983,19.41929545365511 L19.488408272211263,19.41929545365511 L19.470117564521065,30.122188548327784 L25.85588614508275,30.122188548327784 C28.07277112044345,30.122188548327784 29.869918420910835,28.31524461760793 29.869918420910835,26.086275190839633 L29.869918420910835,4.206955677669336 C29.869918420910835,1.9779128704131148 28.072698138330356,0.17096898961196438 25.855740346348636,0.17096898961196438 z" id="Path" stroke="none" stroke-opacity="1" fill="#ffffff" fill-opacity="1"/>
                    </g>
                </g>
            </g>
        </g>
    </g></g></svg>