<?xml version="1.0" encoding="UTF-8"?>
<svg width="24px" height="24px" viewBox="0 0 24 24" version="1.1" xmlns="http://www.w3.org/2000/svg" xmlns:xlink="http://www.w3.org/1999/xlink">
    <title>A09</title>
    <g id="A09" stroke="none" stroke-width="1" fill="none" fill-rule="evenodd">
        <g id="noun-life-saver-2094250" transform="translate(4.000000, 4.000000)" fill="#FFFFFF" fill-rule="nonzero">
            <path d="M12.0938454,1.12448386 C10.7408407,0.312625737 9.12167464,-0.0823163536 7.54662599,0.0143194023 C6.75992324,0.0634709883 5.97659983,0.216014775 5.23906794,0.49229138 C4.8440269,0.641444547 4.45407036,0.81433825 4.086126,1.02109166 C3.7046333,1.2346511 3.35029928,1.48548876 3.00610327,1.75500272 C1.69889008,2.78043268 0.739252245,4.24822382 0.293335177,5.84668088 C-0.128833544,7.35854387 -0.0966213603,9.00950285 0.398454166,10.4993299 C0.652775399,11.2654426 1.01730632,11.9993226 1.49373041,12.6518774 C2.03628402,13.3959541 2.6805587,14.0349341 3.43334409,14.5671436 C4.7286831,15.4840985 6.32075244,15.977319 7.90429593,15.9993549 C9.48787043,16.019694 11.0901708,15.5586673 12.407491,14.6773232 C13.1738557,14.165445 13.8300045,13.5383354 14.3895168,12.8078335 C14.8828996,12.1637708 15.260982,11.4451082 15.5373433,10.6824048 C16.0765176,9.20103876 16.1392368,7.54499695 15.7526689,6.01952809 C15.349133,4.421226 14.4251177,2.94323821 13.1585805,1.88724928 C12.8245845,1.60928047 12.4702195,1.34995696 12.0938113,1.12454584 C11.7886233,0.94149578 11.3359414,1.04658019 11.1663856,1.36861466 C10.9934474,1.69574436 11.0850026,2.10082112 11.4105347,2.29573525 C11.6580756,2.44488842 11.8971278,2.60758547 12.1277286,2.78387289 C12.0819495,2.74828069 12.0361735,2.71268538 11.9903943,2.67709317 C12.4905668,3.06521683 12.9398632,3.51439644 13.3281145,4.01437335 C13.2925106,3.96860928 13.2569036,3.92284832 13.2212997,3.87708425 C13.6044666,4.37709216 13.9232401,4.92284553 14.1690634,5.5025051 C14.147022,5.44826759 14.1232842,5.39403007 14.1012441,5.33979256 C14.3504809,5.93640523 14.5217077,6.56521948 14.6082062,7.20590401 C14.5997288,7.14658056 14.5912513,7.08556491 14.5844694,7.02624146 C14.6692442,7.67200882 14.6692442,8.32794183 14.5844694,8.97370918 C14.5929469,8.91438574 14.6014243,8.85337008 14.6082062,8.79404664 C14.5217356,9.43643577 14.3504933,10.0635454 14.1012441,10.6601581 C14.1232855,10.6059206 14.1470233,10.5516831 14.1690634,10.4974455 C13.9232184,11.0771051 13.6044666,11.6245631 13.2212997,12.1228664 C13.2569036,12.0771023 13.2925106,12.0313414 13.3281145,11.9855773 C12.9398632,12.4855852 12.4905358,12.9347338 11.9903943,13.3228575 C12.0361735,13.2872653 12.0819495,13.25167 12.1277286,13.2160778 C11.6275562,13.5991186 11.0816232,13.9177872 10.5017729,14.1635297 C10.5560283,14.1414956 10.6102837,14.1177656 10.664539,14.0957328 C10.06773,14.3448875 9.43870887,14.516058 8.79781353,14.6025281 C8.8571565,14.5940534 8.91819223,14.585579 8.9775352,14.5787994 C8.33155536,14.6635462 7.67540651,14.6635462 7.02942667,14.5787994 C7.08876964,14.587274 7.14980537,14.5957484 7.20914833,14.6025281 C6.56654783,14.5160859 5.93923183,14.3448999 5.34242285,14.0957328 C5.39667822,14.1177668 5.45093358,14.1414968 5.50518894,14.1635297 C4.92533864,13.9177655 4.37770052,13.5991186 3.87923325,13.2160778 C3.92501238,13.25167 3.9707884,13.2872653 4.01656753,13.3228575 C3.5163951,12.9347338 3.0670987,12.4855542 2.67884733,11.9855773 C2.71445124,12.0313414 2.75005826,12.0771023 2.78566218,12.1228664 C2.40249532,11.6228585 2.08372181,11.0771051 1.83789852,10.4974455 C1.85993984,10.5516831 1.88367764,10.6059206 1.90571772,10.6601581 C1.65648099,10.0635454 1.48525417,9.43473116 1.39875562,8.79404664 C1.4072331,8.85337008 1.41571058,8.91438574 1.42249219,8.97370918 C1.33771741,8.32794183 1.33771741,7.67200882 1.42249219,7.02624146 C1.41401471,7.08556491 1.40553723,7.14658056 1.39875562,7.20590401 C1.48522627,6.56351488 1.65646859,5.93640523 1.90571772,5.33979256 C1.8836764,5.39403007 1.8599386,5.44826759 1.83789852,5.5025051 C2.08374351,4.92284553 2.40249532,4.37538755 2.78566218,3.87708425 C2.75005826,3.92284832 2.71445124,3.96860928 2.67884733,4.01437335 C3.0670987,3.51436544 3.5164261,3.06521683 4.01656753,2.67709317 C3.9707884,2.71268538 3.92501238,2.74828069 3.87923325,2.78387289 C4.37940568,2.40083206 4.92533864,2.08216342 5.50518894,1.83642098 C5.45093358,1.85845505 5.39667822,1.88218505 5.34242285,1.90421788 C5.93923183,1.65506313 6.568253,1.48389263 7.20914833,1.39742253 C7.14980537,1.40589722 7.08876964,1.41437191 7.02942667,1.42115129 C7.67540651,1.3364044 8.33155536,1.3364044 8.9775352,1.42115129 C8.91819223,1.4126766 8.8571565,1.40420191 8.79781353,1.39742253 C9.44041404,1.48386473 10.06773,1.65505073 10.664539,1.90421788 C10.6102837,1.88218381 10.5560283,1.85845381 10.5017729,1.83642098 C10.8154309,1.96862415 11.1206251,2.12116794 11.4122399,2.29573525 C11.7174279,2.47878532 12.1701098,2.37370091 12.3396656,2.05166644 C12.5109079,1.72453674 12.4193527,1.31945998 12.0938206,1.12454584 L12.0938454,1.12448386 Z" id="Path"></path>
            <path d="M10.845972,7.23308475 C10.8866636,7.38732385 10.917183,7.54493497 10.9392231,7.70256468 C10.9307456,7.64324124 10.9222681,7.58222558 10.9154862,7.52290214 C10.9561777,7.83986618 10.9544818,8.15850383 10.9137907,8.47543688 C10.9222682,8.41611343 10.9307457,8.35509778 10.9375273,8.29577433 C10.893444,8.61103377 10.8103651,8.91950576 10.6882906,9.21443387 C10.7103319,9.16019636 10.7340697,9.10595884 10.7561098,9.05172133 C10.6357311,9.33477297 10.4814412,9.60088392 10.2949392,9.84662635 C10.3305431,9.80086229 10.3661501,9.75510132 10.401754,9.70933725 C10.2101644,9.95679669 9.98466982,10.1839 9.73881552,10.3771405 C9.78459465,10.3415483 9.83037067,10.305953 9.87614979,10.2703608 C9.62860893,10.4618874 9.35734452,10.6195264 9.06910904,10.7415454 C9.1233644,10.7195113 9.17761976,10.6957813 9.23187512,10.6737485 C8.9402541,10.7957829 8.63677131,10.8788345 8.32311332,10.9229032 C8.38245628,10.9144285 8.44349201,10.9059538 8.50283498,10.8991745 C8.17900797,10.9432432 7.85177063,10.9432432 7.52794363,10.9025645 C7.5872866,10.9110391 7.64832233,10.9195138 7.70766529,10.9262932 C7.38721763,10.8822245 7.07693896,10.7991729 6.77853447,10.6754432 C6.83278983,10.6974772 6.8870452,10.7212072 6.94130056,10.74324 C6.65137231,10.6195103 6.38008309,10.4601884 6.13084946,10.2686773 C6.17662859,10.3042695 6.22240461,10.3398648 6.26818374,10.375457 C6.02912221,10.187321 5.81380283,9.97205386 5.62558323,9.73306787 C5.66118715,9.77883194 5.69679417,9.8245929 5.73239809,9.87035697 C5.54080845,9.62120222 5.3814434,9.35001774 5.25767917,9.06017246 C5.27972049,9.11440998 5.3034583,9.16864749 5.32549838,9.22288501 C5.20172794,8.92457867 5.11695317,8.61440207 5.07456578,8.29405981 C5.08304325,8.35338325 5.09152073,8.41439891 5.09830234,8.47372235 C5.05761082,8.15000187 5.05761082,7.82287217 5.10169346,7.49915169 C5.09321598,7.55847513 5.0847385,7.61949079 5.07795689,7.67881423 C5.12204015,7.36863763 5.20511906,7.06695307 5.32549776,6.77710779 C5.30345644,6.8313453 5.27971863,6.88558282 5.25767855,6.93982034 C5.38144898,6.64998745 5.54082333,6.37711386 5.73239747,6.12796221 C5.69679355,6.17372628 5.66118653,6.21948725 5.62558261,6.26525131 C5.82056398,6.01779187 6.04266683,5.79577138 6.29190046,5.60253086 C6.24612134,5.63812307 6.20034531,5.67371837 6.15456619,5.70931058 C6.39362771,5.52795273 6.65303345,5.37709805 6.92939476,5.25845736 C6.8751394,5.28049143 6.82088404,5.30422143 6.76662868,5.32625425 C7.0684249,5.19913392 7.3821015,5.11269481 7.7059285,5.06862606 C7.64658554,5.07710075 7.58554981,5.08557543 7.52620684,5.09235481 C7.84327518,5.05167668 8.16201768,5.05167668 8.47905501,5.09065988 C8.41971204,5.08218519 8.35867631,5.07371081 8.29933335,5.06693112 C8.62316035,5.11099987 8.93681835,5.19574367 9.23863317,5.3211687 C9.18437781,5.29913463 9.13012245,5.27540463 9.07586709,5.2533718 C9.36070774,5.37540621 9.62858971,5.53303283 9.87444401,5.72117812 C9.82866488,5.68558591 9.78288886,5.64999061 9.73710973,5.6143984 C9.98125886,5.80592501 10.1982803,6.02288437 10.3898792,6.26695319 C10.3542753,6.22118913 10.3186683,6.17542816 10.2830644,6.12966409 C10.4712623,6.37542822 10.6289346,6.64321588 10.7510246,6.92797833 C10.7289833,6.87374082 10.7052455,6.8195033 10.6832054,6.76526579 C10.7493288,6.91611426 10.8035841,7.07374088 10.8459715,7.23307211 C10.8900548,7.39747996 11.0104335,7.55341437 11.1579243,7.63814886 C11.3037349,7.72289576 11.5173739,7.75848796 11.68014,7.70594576 C12.0310946,7.5923848 12.2532006,7.23813944 12.1531847,6.87205171 C11.7225211,5.27712783 10.3356301,3.99746339 8.68921238,3.7585084 C8.42810767,3.72122088 8.16870194,3.69410212 7.9042148,3.70088026 C7.6481977,3.70765995 7.39049403,3.73986309 7.13785006,3.78901778 C6.70551234,3.87206936 6.27993328,4.03647721 5.89506124,4.25174126 C5.19482604,4.64327414 4.59631189,5.25175707 4.2199347,5.960223 C4.01478122,6.34834666 3.85710584,6.77208112 3.78418663,7.20598124 C3.74179925,7.4568313 3.71127983,7.71277658 3.70951597,7.96701106 C3.70789157,8.22294395 3.73671474,8.47548002 3.7757104,8.72804089 C3.9062612,9.57718343 4.33692786,10.3839897 4.935411,10.9975555 C5.53559932,11.6128259 6.34267108,12.0585652 7.19209302,12.2077339 C7.43793802,12.2518027 7.68718095,12.2823089 7.93808875,12.2873949 C8.19919345,12.2924796 8.45859918,12.2636658 8.71632766,12.2246839 C9.15716022,12.1585823 9.58270828,12.0077338 9.98115965,11.8077369 C11.4986046,11.0399506 12.4599476,9.31281118 12.2836332,7.6162617 C12.2582011,7.36541164 12.2192057,7.11454919 12.1547783,6.87051136 C12.110695,6.70610351 11.9886204,6.5501691 11.8428254,6.4654346 C11.6970304,6.38070011 11.4833759,6.3450955 11.3206098,6.39763771 C10.96795,6.51289398 10.7492234,6.86544403 10.8458909,7.23323637 L10.845972,7.23308475 Z" id="Path"></path>
            <path d="M4.25038023,1.71093087 L7.05132104,4.50924574 C6.61219364,4.62788953 6.19002492,4.829588 5.81191155,5.11943328 C5.68644525,5.21604424 5.56437069,5.32282396 5.4490827,5.43807094 C5.4338233,5.45332531 5.42025946,5.46688469 5.40499944,5.48213969 C5.3914356,5.49569907 5.37956732,5.50925845 5.36600379,5.52281783 C5.3541355,5.53468221 5.34226722,5.54824159 5.33039987,5.56010535 C5.32361795,5.56858003 5.31514047,5.57705472 5.30835855,5.5855291 C5.30327219,5.59061379 5.29818582,5.59739348 5.29309915,5.60247848 C5.28462167,5.61264786 5.2761445,5.62112255 5.26766703,5.63129224 C5.26597153,5.63468224 5.26258066,5.63637693 5.26088511,5.63976693 C5.25240763,5.64993662 5.2422349,5.660106 5.23375743,5.67197162 C5.22867106,5.6770563 5.22527995,5.68214099 5.22019359,5.68892099 C5.21171611,5.69739568 5.20493419,5.70756506 5.19815227,5.71603975 C5.1744157,5.74485351 5.15068038,5.7753632 5.12694133,5.80586947 C5.11507305,5.82112385 5.10320445,5.83637792 5.09303018,5.85163354 C5.09133468,5.85332848 5.08963906,5.85671823 5.08794382,5.85841323 C5.07777109,5.87366761 5.0659025,5.88722699 5.05572853,5.90248199 C5.04725105,5.91434636 5.03877389,5.92790574 5.03029641,5.9397695 C5.02521005,5.94654919 5.02012368,5.95332888 5.01673257,5.96010857 C5.00825509,5.97366795 4.99808237,5.98722733 4.98960489,6.00078671 C4.97943216,6.01604109 4.97095468,6.02960046 4.96078165,6.04485546 C4.93874033,6.08044767 4.91669839,6.11604298 4.89465831,6.15163518 C4.72341599,6.43977276 4.59794969,6.74486963 4.51657595,7.05842445 L1.70887648,4.25164853 C2.01236857,3.74317957 2.38368917,3.26179838 2.82281656,2.82452004 C3.26194396,2.38724169 3.74007321,2.01433553 4.25041465,1.71093087 L4.25038023,1.71093087 Z" id="Path"></path>
            <path d="M3.7704528,2.18890285 C4.08581597,2.50416228 4.40117914,2.81942171 4.71821647,3.13635476 C5.22176823,3.63974088 5.72364583,4.1414534 6.22719759,4.64483953 L6.57306777,4.99059594 C6.67310226,4.61263794 6.77313365,4.23464895 6.87316813,3.85669095 C5.77959706,4.15499728 4.81654889,4.899074 4.26382626,5.89059777 C4.09088807,6.19907286 3.95524967,6.53636512 3.86370072,6.87874331 C4.24178308,6.77874173 4.61989645,6.67874325 4.99797882,6.57874167 L2.19027934,3.77196575 C2.22588326,4.04654394 2.26149028,4.31942373 2.2970942,4.59398953 C2.44629644,4.34653009 2.60904703,4.1075565 2.78539246,3.87703156 C2.74978854,3.92279563 2.71418152,3.9685566 2.6785776,4.01432066 C3.06682897,3.51431276 3.51615637,3.06516414 4.0162978,2.67704048 C3.97051868,2.71263269 3.92474265,2.748228 3.87896353,2.7838202 C4.10785295,2.60754828 4.34692377,2.44482024 4.5961574,2.29568257 C4.74366378,2.20754505 4.86234661,2.05669968 4.90811023,1.89060581 C4.95219349,1.72789326 4.9318468,1.51264781 4.84029103,1.36856198 C4.64361379,1.0634744 4.23839755,0.929579023 3.91286538,1.12449316 C2.77350278,1.80584032 1.81048561,2.77027632 1.12717808,3.90926414 C0.972888234,4.16689234 1.02205909,4.51945169 1.23399294,4.73128793 C1.55106127,5.04825197 1.8680986,5.36518501 2.18516694,5.68214905 C2.6887187,6.18553518 3.1905963,6.68724769 3.69414806,7.19063382 C3.80944226,7.30589009 3.92642922,7.42283857 4.04172341,7.53809484 C4.39946777,7.89572152 5.04374244,7.73301207 5.17600151,7.2380932 C5.22008476,7.07029472 5.27603599,6.90588067 5.3438552,6.74657734 C5.32181388,6.80081485 5.29807607,6.85505237 5.27603599,6.90928988 C5.39641469,6.62962886 5.55240041,6.36691473 5.73720657,6.12622413 C5.70160265,6.1719882 5.66599563,6.21774917 5.63039171,6.26351323 C5.82537308,6.01605379 6.04747593,5.7940333 6.29670956,5.60079278 C6.25093044,5.63638499 6.20515441,5.67198029 6.15937529,5.7075725 C6.39843682,5.52790996 6.65446322,5.37706458 6.92911936,5.2600975 C6.874864,5.28213157 6.82060864,5.30586157 6.76635328,5.3278944 C6.91894726,5.26348812 7.07492987,5.21094592 7.23431352,5.16687716 C7.72769628,5.03297868 7.8938417,4.39397707 7.53441388,4.03297217 C7.21905071,3.71771274 6.90368755,3.4024533 6.58665022,3.08552026 C6.08309845,2.58213413 5.58122085,2.08042162 5.07766909,1.57703549 L4.73179891,1.23127908 C4.48086631,0.980429018 4.01968954,0.961786809 3.77216107,1.23127908 C3.52122847,1.50077134 3.50258013,1.92111829 3.77046561,2.18889665 L3.7704528,2.18890285 Z" id="Path"></path>
            <path d="M11.493626,8.94977959 L14.2945669,11.7497991 C13.9910748,12.258268 13.6197542,12.7396492 13.1806268,13.1769276 C12.7414994,13.6159105 12.261665,13.9871121 11.7530287,14.2905012 L8.94362404,11.4853989 C9.21998846,11.4142114 9.49126217,11.3074317 9.74899064,11.1650567 C9.76594559,11.1548873 9.78290179,11.1464126 9.79985426,11.1362429 C9.81680891,11.1260735 9.83376541,11.1159038 9.85071789,11.1074292 C9.86428173,11.0989545 9.87784557,11.0921748 9.88971354,11.0837001 C9.91175486,11.0701407 9.9337968,11.0565813 9.95583688,11.0413266 C9.97109627,11.0311573 9.98635536,11.0226826 9.99992013,11.0125129 C10.0100932,11.0057332 10.0202659,10.9989535 10.0321354,10.9921738 C10.0355265,10.9904789 10.0389173,10.9887838 10.0406129,10.9853941 C10.0456993,10.9820041 10.0524812,10.9786144 10.0575679,10.9735297 C10.0592633,10.9718348 10.0609587,10.9718348 10.0626542,10.9701397 C10.0745225,10.9616651 10.0880863,10.9531904 10.099954,10.944716 C10.1118223,10.9362413 10.1236906,10.9277666 10.1372538,10.9175972 C10.1423401,10.9142072 10.1474265,10.9108175 10.1525132,10.9074275 C10.1677726,10.8955632 10.1830317,10.8853935 10.1982923,10.8735275 C10.2135517,10.8616632 10.2288111,10.8497988 10.2423756,10.8379353 C10.257635,10.826071 10.2728944,10.8142066 10.2864588,10.8023431 C10.3017182,10.7904788 10.3152821,10.7786141 10.3305421,10.7667509 C10.3390196,10.7599712 10.347497,10.7514965 10.3559742,10.7447169 C10.3610606,10.7413272 10.3644517,10.7362422 10.369538,10.7328525 C10.3780155,10.7260728 10.3864927,10.7192931 10.3932746,10.7108184 C10.408534,10.697259 10.4220978,10.6853946 10.4373579,10.6718356 C10.4492261,10.6599712 10.4593992,10.6464118 10.4729618,10.6362434 C10.4865256,10.622684 10.5000895,10.6074296 10.5136533,10.5938699 L10.5170444,10.5904799 C10.5306083,10.5769205 10.5475632,10.5650562 10.5628235,10.5498018 C10.6781177,10.4345455 10.7849326,10.3142064 10.881566,10.1870923 C11.1714943,9.80913428 11.3749488,9.39048265 11.4936285,8.94977959 L11.493626,8.94977959 Z" id="Path"></path>
            <path d="M11.0136986,9.42954916 C11.3290618,9.74480859 11.644425,10.060068 11.9614623,10.3770011 C12.465014,10.8803872 12.9668916,11.3820997 13.4704434,11.8854858 L13.8163136,12.2312422 C13.7807097,11.9566641 13.7451027,11.6837843 13.7094987,11.4092185 C13.5602965,11.6566779 13.3975459,11.8956515 13.2212005,12.1261764 C13.2568044,12.0804124 13.2924114,12.0346514 13.3280153,11.9888873 C12.939764,12.4888952 12.4904366,12.9380439 11.9902951,13.3261675 C12.0360743,13.2905753 12.0818503,13.25498 12.1276294,13.2193878 C11.89874,13.3956597 11.6596692,13.5583878 11.4104355,13.7075254 C11.6851041,13.7431176 11.9580736,13.7787129 12.2327298,13.8143052 C11.9156615,13.4973411 11.5986241,13.1804081 11.2815558,12.863444 C10.778004,12.3600579 10.2761264,11.8583454 9.77257467,11.3549593 C9.65728047,11.239703 9.54029351,11.1227545 9.42499932,11.0074982 C9.32496483,11.3854562 9.22493345,11.7634452 9.12489896,12.1414032 C10.22867,11.8498781 11.200182,11.0922327 11.7545788,10.0939525 C11.9224325,9.79225557 12.0563751,9.46513826 12.1462405,9.13292574 C12.1920197,8.96343195 12.1665863,8.76342879 12.0784213,8.6108819 C11.9953424,8.47020218 11.8342722,8.33630371 11.6732113,8.29903169 C11.3154669,8.21767541 10.9390587,8.40581141 10.8390429,8.77192083 C10.7949596,8.93124276 10.7424001,9.08718027 10.6779726,9.23972715 C10.700014,9.18548964 10.7237518,9.13125212 10.7457918,9.07701461 C10.627109,9.3515928 10.4762109,9.60751949 10.2964954,9.84650548 C10.3320994,9.80074141 10.3677064,9.75498045 10.4033103,9.70921638 C10.2117207,9.95667582 9.98793125,10.1837791 9.74037178,10.3770197 C9.78615091,10.3414275 9.83192693,10.3058321 9.87770606,10.2702399 C9.62846932,10.4617666 9.35890078,10.6194056 9.06896013,10.7414245 C9.12321549,10.7193904 9.17747085,10.6956604 9.23172622,10.6736276 C9.07913224,10.7363386 8.92314962,10.7888839 8.76376597,10.8312542 C8.26867804,10.9617621 8.10591196,11.6058279 8.46366561,11.9651592 C8.78073395,12.2821232 9.09777128,12.5990563 9.41483961,12.9160203 C9.91839138,13.4194065 10.420269,13.921119 10.9238207,14.4245051 C11.0391149,14.5397614 11.1561019,14.6567098 11.2713961,14.7719661 C11.4816341,14.9821349 11.8359929,15.0329849 12.0936904,14.8787458 C13.2330529,14.1973987 14.1960701,13.2329627 14.8793776,12.0939748 C15.0336675,11.8363466 14.9844966,11.4837873 14.7725628,11.2719511 L11.9699478,8.47025797 C11.7190152,8.21940791 11.2578384,8.2007657 11.01031,8.47025797 C10.764465,8.74144555 10.7458166,9.1617708 11.0137011,9.42958015 L11.0136986,9.42954916 Z" id="Path"></path>
            <path d="M5.91028427,10.9432407 C6.26632346,11.195783 6.65628,11.3754362 7.05981588,11.4822377 L4.25041124,14.2907182 C3.74177497,13.9873259 3.26023538,13.6161275 2.82281315,13.1771445 C2.38368576,12.7381616 2.01236206,12.258485 1.70887307,11.750016 L4.51827771,8.94153549 C4.62509256,9.34493863 4.80481423,9.7347669 5.05745199,10.090689 C5.17274619,10.2517062 5.30329699,10.4059484 5.44740853,10.5517079 C5.59152317,10.6974704 5.74920476,10.8279814 5.91028427,10.9432407 Z" id="Path"></path>
            <path d="M5.56770042,11.5277662 C5.96106729,11.805735 6.41374303,12.010821 6.87999811,12.1362491 C6.77996362,11.7582911 6.67993223,11.3803021 6.57989775,11.0023441 C6.26282941,11.3193082 5.94579208,11.6362412 5.62872375,11.9532052 C5.12517198,12.4565914 4.62162022,12.9599775 4.11803745,13.4633946 C4.00105049,13.5803431 3.8857563,13.6955994 3.76875694,13.8125603 C4.04342548,13.776968 4.31639506,13.7413727 4.5910512,13.7057805 C4.34351034,13.5566274 4.10445811,13.3939303 3.87385732,13.2176429 C3.91963645,13.2532351 3.96541247,13.2888304 4.0111916,13.3244226 C3.51101917,12.936299 3.06172276,12.4871193 2.67347139,11.9871424 C2.70907531,12.0329065 2.74468233,12.0786675 2.78028625,12.1244315 C2.60395633,11.8956174 2.44117474,11.6566252 2.29198799,11.4074736 C2.25638408,11.6820518 2.22077706,11.9549316 2.18517314,12.2294974 C2.50224147,11.9125333 2.8192788,11.5956003 3.13634714,11.2786362 C3.6398989,10.7752501 4.14345067,10.271864 4.64703343,9.76844685 C4.76402039,9.65149837 4.87931459,9.5362421 4.99631395,9.41928122 C4.61823159,9.31927964 4.24011822,9.21928116 3.86203586,9.11927958 C3.98411042,9.57351102 4.18248352,10.0192814 4.45205516,10.4057315 C4.76400799,10.8497972 5.13024719,11.2142114 5.56766941,11.5277662 C5.70330782,11.6243771 5.93558277,11.6379365 6.08988502,11.5955631 C6.24756351,11.5514943 6.41712236,11.4311552 6.49509507,11.2837129 C6.57817398,11.1260862 6.62056137,10.9362518 6.56291427,10.761669 C6.50526717,10.5853971 6.40184405,10.465058 6.25096144,10.3565923 C6.21026992,10.3277785 6.17127427,10.2972688 6.13058275,10.2667625 C6.17636187,10.3023548 6.22213789,10.3379501 6.26791702,10.3735423 C6.02885549,10.1854063 5.81353611,9.97013912 5.62531651,9.73115313 C5.66092043,9.7769172 5.69652745,9.82267816 5.73213137,9.86844223 C5.5422376,9.6226781 5.38626119,9.35656406 5.26417112,9.07012799 C5.28621244,9.12436551 5.30995025,9.17860302 5.33199032,9.23284054 C5.26756286,9.07860144 5.21500336,8.92266393 5.17092011,8.761656 C5.03867344,8.26843553 4.39609153,8.10401837 4.03664201,8.46165435 C3.71957368,8.77861839 3.40253635,9.09555144 3.08546801,9.41251548 C2.58191625,9.91590161 2.07836448,10.4192877 1.57478172,10.9227049 C1.45779476,11.0396533 1.34250056,11.1549096 1.2255012,11.2718705 C1.01526322,11.4820393 0.964396495,11.8362816 1.11868634,12.0938943 C1.8002577,13.2328821 2.76501104,14.1955825 3.90437364,14.8786653 C4.16208661,15.0329043 4.51476196,14.9837497 4.7266679,14.7718855 L7.53777771,11.9617004 C7.89722723,11.6023691 7.73275908,10.9616846 7.23767735,10.8277954 C7.07660714,10.785422 6.92060902,10.7311844 6.76633777,10.6667782 C6.82059314,10.6888122 6.8748485,10.7125422 6.92910386,10.7345751 C6.69004233,10.6328813 6.46284878,10.5057609 6.25091184,10.3566171 C6.11357756,10.2600061 5.88299848,10.2447514 5.72869623,10.2888202 C5.57101775,10.3328889 5.40145889,10.453228 5.32348618,10.6006704 C5.24040727,10.758297 5.19801988,10.9481314 5.25566698,11.1227142 C5.31331408,11.2989861 5.4167372,11.4210205 5.56761981,11.527791 L5.56770042,11.5277662 Z" id="Path"></path>
            <path d="M13.1805028,2.82279993 C13.6196302,3.26178288 13.9909538,3.74145947 14.2944428,4.24992843 L11.4969124,7.04653869 C11.4002696,6.67874635 11.2425911,6.32279329 11.0238676,5.99398997 C11.0136949,5.97873559 11.0035219,5.96348121 10.9916523,5.9465337 C10.9899568,5.94483876 10.9882612,5.9431437 10.9882612,5.94144901 C10.9780885,5.92619463 10.9679155,5.91094025 10.9560459,5.89568494 C10.9458732,5.88212556 10.9357002,5.86856618 10.9255275,5.8550068 C10.9221363,5.84992211 10.91705,5.84314242 10.9136592,5.83805742 L10.9119637,5.83636249 C10.9034862,5.82449811 10.8933135,5.81263373 10.884836,5.80077028 C10.8763586,5.7889059 10.8661858,5.77704152 10.8577083,5.76517807 C10.852622,5.75839838 10.8492309,5.75331369 10.8441445,5.74822869 C10.8339715,5.73636431 10.8237987,5.72449994 10.8153213,5.71094118 C10.8017574,5.6939918 10.786498,5.67704118 10.7729339,5.66009428 C10.73733,5.61772083 10.7000271,5.5770427 10.6627273,5.53636456 C10.6576409,5.53127987 10.6525546,5.52450018 10.6474679,5.51941518 C10.6389904,5.5092458 10.6305129,5.50077111 10.6203402,5.49060143 C10.6152538,5.48551674 10.6101672,5.48043205 10.6050808,5.47534705 C10.5932125,5.46178767 10.5796487,5.44992329 10.567781,5.43636422 C10.5542172,5.42280484 10.5423489,5.41094046 10.5287854,5.3990767 C10.523699,5.39399201 10.5186126,5.38890701 10.513526,5.38382232 C10.5050485,5.37534764 10.4948758,5.36517826 10.4847027,5.35670357 C10.4796164,5.35161888 10.4728345,5.34653419 10.4677478,5.34144919 C10.4270563,5.30416167 10.3846689,5.26687415 10.3439773,5.23127885 C10.3270224,5.21771947 10.3100662,5.20246509 10.2931137,5.1889054 C10.2812454,5.17873571 10.2693772,5.16856633 10.2558139,5.16009164 C10.2507276,5.15500695 10.2439457,5.14992227 10.238859,5.14653227 C10.2269907,5.13805758 10.2151224,5.1278882 10.2032551,5.11941351 C10.1913868,5.10924413 10.1795185,5.10076944 10.1676511,5.09229475 L10.1659557,5.09059981 C10.1608693,5.08721012 10.1557826,5.08212512 10.1490007,5.07873543 L10.1083092,5.04822668 C10.0930498,5.0380573 10.0777907,5.02788761 10.0625301,5.01602199 C10.0608346,5.01432708 10.059139,5.0126323 10.0574437,5.0126323 C10.0421843,5.00246261 10.0269249,4.99229323 10.0099718,4.98042761 C9.68106032,4.76178224 9.32499013,4.60414323 8.95707677,4.50753846 L11.7546072,1.7109282 C12.2615693,2.01432047 12.7413728,2.38551892 13.1805002,2.82279727 L13.1805028,2.82279993 Z" id="Path"></path>
            <path d="M12.7005753,3.3025695 C12.9243802,3.5263008 13.1329131,3.76358838 13.3262172,4.01444463 C13.2906132,3.96868057 13.2550062,3.9229196 13.2194023,3.87715554 C13.3957322,4.10596967 13.5585138,4.34496185 13.7077006,4.5941135 C13.7433045,4.31953531 13.7789115,4.04665552 13.8145154,3.77208972 C13.4991522,4.08734915 13.1837891,4.40260858 12.8684259,4.71786802 C12.3665483,5.21958053 11.8629966,5.72296666 11.36115,6.22464818 C11.2458558,6.33990445 11.1305647,6.45515762 11.0169539,6.56873097 C11.3950363,6.66873256 11.7731497,6.76873104 12.151232,6.86873262 C11.8579152,5.78060409 11.1203802,4.82295553 10.1386991,4.26533188 C9.82504115,4.08736465 9.48425547,3.94669423 9.13497495,3.85346769 C9.23500944,4.23142569 9.33504083,4.60941468 9.43507531,4.98737268 L12.2326058,2.19076242 C11.9579372,2.22635462 11.6849677,2.26194993 11.4103115,2.29754214 C11.6578524,2.44669531 11.8969046,2.60939236 12.1275054,2.78567978 C12.0817263,2.75008757 12.0359502,2.71449226 11.9901711,2.67890006 C12.2394079,2.87042667 12.4767642,3.08059859 12.7005753,3.30263148 C12.9515079,3.55348154 13.4109795,3.57212375 13.6602132,3.30263148 C13.907754,3.03313922 13.9280982,2.61111866 13.6602132,2.3433093 C13.1922529,1.87720759 12.6615735,1.46363879 12.0952715,1.12466982 C11.8375585,0.97043072 11.4848832,1.01958541 11.2729772,1.23144954 L8.47544678,4.0280598 C8.11599725,4.38739109 8.28046541,5.02807561 8.77554713,5.16196479 C8.93152975,5.20433824 9.08412373,5.25518513 9.23333838,5.31620389 C9.17908301,5.29416982 9.12482765,5.27043982 9.07057229,5.24840699 C9.35880468,5.3704414 9.62837942,5.52806802 9.87761305,5.71788693 C9.83183392,5.68229472 9.7860579,5.64669941 9.74027877,5.61110721 C9.9844279,5.80263382 10.2014493,6.01959318 10.3930483,6.263662 C10.3574444,6.21789793 10.3218373,6.17213696 10.2862334,6.1263729 C10.4761272,6.37552765 10.6338088,6.64500752 10.7558678,6.93314819 C10.7338265,6.87891068 10.7100887,6.82467316 10.6880486,6.77043565 C10.7490875,6.91958881 10.801647,7.0721326 10.8423385,7.2280763 C10.9745852,7.72129677 11.6171671,7.88571392 11.9766166,7.52807795 C12.2919797,7.21281852 12.6073429,6.89755908 12.9227061,6.58229965 C13.4245837,6.08058714 13.9281354,5.57720101 14.429982,5.07551949 C14.5452762,4.96026322 14.6605673,4.84501005 14.7741781,4.73143669 C14.984416,4.52126787 15.0352828,4.16702561 14.8809929,3.90941291 C14.5402072,3.34162361 14.1282075,2.81279234 13.6619524,2.34498602 C13.4110198,2.09413596 12.9498431,2.07549375 12.7023146,2.34498602 C12.451382,2.61617359 12.4327337,3.03482523 12.7006191,3.30260359 L12.7005753,3.3025695 Z" id="Path"></path>
        </g>
    </g>
</svg>