<?xml version="1.0" encoding="UTF-8"?>
<svg width="20px" height="11px" viewBox="0 0 20 11" version="1.1" xmlns="http://www.w3.org/2000/svg" xmlns:xlink="http://www.w3.org/1999/xlink">
    <title>icon_chevron_upSVG</title>
    <g id="Product-Page" stroke="none" stroke-width="1" fill="none" fill-rule="evenodd">
        <g id="A02" transform="translate(-327.000000, -482.000000)">
            <g id="Group-28-Copy" transform="translate(165.000000, 462.000000)">
                <g id="icon_chev_up" transform="translate(160.000000, 13.000000)">
                    <rect id="Rectangle" x="0" y="0" width="24" height="24"></rect>
                    <g id="noun_chevron_1025831-(1)" transform="translate(12.000000, 12.315789) rotate(90.000000) translate(-12.000000, -12.315789) translate(6.947368, 3.157895)" fill="#242424" fill-rule="nonzero">
                        <g id="Path">
                            <path d="M11.8821321,13.8268533 C12.4147845,14.3384173 13.2783846,14.3384173 13.811037,13.8268533 C14.3436894,13.3152893 14.3436894,12.4858802 13.811037,11.9743163 L6.01708404,4.48893617 C5.48443165,3.97737215 4.6208315,3.97737215 4.08817912,4.48893617 L-3.70577384,11.9743163 C-4.23842626,12.4858802 -4.23842626,13.3152893 -3.70577384,13.8268533 C-3.17312146,14.3384173 -2.30952131,14.3384173 -1.77686892,13.8268533 L5.05636184,7.26415914 L11.8821321,13.8268533 Z" transform="translate(5.052632, 9.157895) rotate(90.000000) translate(-5.052632, -9.157895) "></path>
                        </g>
                    </g>
                </g>
            </g>
        </g>
    </g>
</svg>