<svg xmlns="http://www.w3.org/2000/svg" fill="#000000" width="30.0569103976473" height="30.170731503079857" style=""><rect id="backgroundrect" width="100%" height="100%" x="0" y="0" fill="none" stroke="none" class="" style=""/>    <g class="currentLayer" style=""><title>Layer 1</title><path d="M15.01796205929921,4.730023996397694e-7 C6.803462300233013,4.730023996397694e-7 0.11633724188017641,6.700918705749104 0.11335340631479496,14.939455181480447 C0.111861488532107,17.572913989560202 0.7996121632429815,20.143810195547104 2.1035484545057774,22.40918178757776 L0.08130044790436841,29.925668746636042 L7.887643727050704,28.075771666365792 C10.064351771995339,29.266813263656417 12.514732888435052,29.892026310362827 15.009219421092647,29.89352259377651 L15.015048343869614,29.89352259377651 C23.228055737577787,29.89352259377651 29.912266632925697,23.191108077616118 29.91674238627376,14.954067885298466 C29.919726221839138,10.960486855668684 28.371302053129817,7.2057039804187095 25.557545114976573,4.380720895387693 C22.74378817682333,1.5572340937703615 19.004366374646754,0.0014967564160838346 15.01796205929921,4.730023996397694e-7 zM15.015048343869614,2.9925673003657662 C18.201784727695347,2.9940635837794503 21.196575445353545,4.240163772214972 23.447879379432685,6.496559160046949 C25.699183313511814,8.75594711470629 26.935890656459243,11.758076090853127 26.93290682089387,14.951145643791541 C26.929922985328492,21.540776301362257 21.58552288705416,26.900955766413144 15.012133136522243,26.900955766413144 C13.02340673219654,26.89945948299946 11.053469838809587,26.39864743930654 9.318369457541175,25.448507471618683 L8.313073332674998,24.89909165379914 L7.202876738713429,25.162109848539522 L4.26566360404259,25.857648215688968 L4.982483401598508,23.186548902054625 L5.305926551940566,21.98835207747979 L4.688179345045511,20.912898373896077 C3.646820732727922,19.105388010168603 3.0956970539120063,17.038740810875844 3.097188971694694,14.939455181480447 C3.100172807260076,8.352815594453684 8.446133749918658,2.9925673003657662 15.015048343869614,2.9925673003657662 zM9.743799212357251,8.042523821541447 C9.494648942648029,8.042523821541447 9.091807867404329,8.136041534896545 8.750158695168329,8.510112388316967 C8.40850952293233,8.882686958323706 7.444730635314628,9.785062716508369 7.444730635314628,11.622498748509479 C7.444730635314628,13.459934630882247 8.779297639765607,15.236069427708223 8.965787362601851,15.485948757793064 C9.150785167655403,15.73433180446422 11.541839875082895,19.624107573756465 15.326835289767294,21.12039098743815 C18.471797975677706,22.363802504207623 19.110549147076366,22.11841202436382 19.793847491548355,22.0555681209892 C20.477145836020355,21.994220501028245 21.998226135608547,21.15398703892554 22.308545034408056,20.281655305032533 C22.618862441289785,19.409320578572693 22.619586021414392,18.65893444661134 22.527087118887614,18.504818751285537 C22.43458821636083,18.34920527626264 22.186160034858435,18.256411764079754 21.813180589185944,18.069376337369548 C21.441693061296142,17.882340910659334 19.61099357234853,16.98075982859568 19.269344400112537,16.8565683052601 C18.927695227876534,16.73237678192452 18.677798999275968,16.66953287854989 18.43014064734944,17.043603731970308 C18.18248229542291,17.41767458539073 17.470745014177268,18.25643420833096 17.252925017904538,18.504818751285537 C17.035105021631807,18.75469808137037 16.818753072457238,18.788294132857775 16.44577362678475,18.601258706147565 C16.072794181112265,18.41272699602367 14.873572764372696,18.017356548209488 13.450283199686487,16.745515646580063 C12.34327871301276,15.756472310136468 11.596318148068486,14.536160416707407 11.37849815179575,14.16208956328699 C11.162170073305708,13.789514993280246 11.358100950254371,13.584874295924664 11.544590673090616,13.399335152628138 C11.71168546475189,13.23175141029579 11.914656104949952,12.96316853753992 12.101146424553308,12.7447111591424 C12.286144229606858,12.526253780744865 12.35029669426253,12.370616365187363 12.474125870225796,12.1222333185162 C12.597955046189064,11.873851019986745 12.534570919191475,11.654645499882381 12.442072016664701,11.467610073172168 C12.349573114137925,11.28057464646196 11.62520078119069,9.436311821385933 11.293995033433523,8.697147815027183 C11.015006408070503,8.07619019834928 10.720352645989237,8.061765128471341 10.454791280670426,8.05129114457557 C10.238463202180382,8.042313444093484 9.991457564283781,8.042523821541447 9.743799212357251,8.042523821541447 z" id="svg_1" class="" fill="#ffffff" fill-opacity="1"/></g></svg>