<?xml version="1.0" encoding="UTF-8"?>
<svg width="24px" height="24px" viewBox="0 0 24 24" version="1.1" xmlns="http://www.w3.org/2000/svg" xmlns:xlink="http://www.w3.org/1999/xlink">
    <title>A07</title>
    <g id="A07" stroke="none" stroke-width="1" fill="none" fill-rule="evenodd">
        <path d="M18.8121033,18.8512236 L16.2093853,20.7519666 C15.9807891,20.9188722 15.7205746,21 15.4137019,21 C15.0730995,21 14.6770454,20.8996194 14.2366031,20.7012443 C10.7556988,19.1345709 5.41763765,11.7108028 5.02367484,7.88946576 C4.92881008,6.96917685 5.11932888,6.32823101 5.58996265,5.98433787 L8.19281557,4.0835949 C8.49335388,3.86424362 8.91867855,4.1162588 9.10985845,4.38235058 L10.8754055,6.83783666 C11.1793674,7.26048837 11.0855583,7.48313343 10.776193,7.79453058 C10.623357,7.94842081 10.4485157,8.08239875 10.2794558,8.21170964 L10.2652259,8.2227304 C9.80171246,8.57739888 9.27654115,8.97945167 9.12593807,9.57563056 C9.000241,10.0742195 9.14754632,10.5927276 9.58972134,11.2073639 L12.5293315,15.2955351 C12.9714941,15.9103074 13.414601,16.2129007 13.9235821,16.2477082 C14.5328078,16.2896674 15.0755185,15.9112456 15.5545814,15.5778355 L15.5869936,15.5551301 C15.8292942,15.3861 16.2345699,15.1031436 16.5348654,15.0856379 C16.7646489,15.0699698 16.9318639,15.2594472 17.0502888,15.424225 L18.8159708,17.8795751 C18.9105724,18.0108949 18.9794822,18.195058 18.995949,18.3599786 C19.017557,18.5745506 18.952205,18.7490126 18.8122808,18.8512593 L18.8121033,18.8512236 Z" id="Path" fill="#FFFFFF" fill-rule="nonzero"></path>
    </g>
</svg>