<svg xmlns="http://www.w3.org/2000/svg" fill="#000000" width="30.519480036933203" height="30.519480036933203"><rect id="backgroundrect" width="100%" height="100%" x="0" y="0" fill="none" stroke="none"/><g class="currentLayer" style=""><title>Layer 1</title><path d="M7.525045490348447,0.4935054569168642 C3.649728994802585,0.4935054569168642 0.4935054569168642,3.649728994802585 0.4935054569168642,7.525045490348447 L0.4935054569168642,22.99443356389793 C0.4935054569168642,26.869750129759186 3.649728994802585,30.02597359732951 7.525045490348447,30.02597359732951 L22.99443356389793,30.02597359732951 C26.869750129759186,30.02597359732951 30.02597359732951,26.869750129759186 30.02597359732951,22.99443356389793 L30.02597359732951,7.525045490348447 C30.02597359732951,3.649728994802585 26.869750129759186,0.4935054569168642 22.99443356389793,0.4935054569168642 L7.525045490348447,0.4935054569168642 zM7.525045490348447,1.8998134636031807 L22.99443356389793,1.8998134636031807 C26.109874099274347,1.8998134636031807 28.619665590643194,4.409604884656629 28.619665590643194,7.525045490348447 L28.619665590643194,22.99443356389793 C28.619665590643194,26.109874099274347 26.109874099274347,28.619665590643194 22.99443356389793,28.619665590643194 L7.525045490348447,28.619665590643194 C4.409604884656629,28.619665590643194 1.8998134636031807,26.109874099274347 1.8998134636031807,22.99443356389793 L1.8998134636031807,7.525045490348447 C1.8998134636031807,4.409604884656629 4.409604884656629,1.8998134636031807 7.525045490348447,1.8998134636031807 zM10.33766150372108,4.0092754736326555 C8.404328321065012,4.0092754736326555 6.8218914870052885,5.591712307692379 6.8218914870052885,7.525045490348447 L6.8218914870052885,22.99443356389793 C6.8218914870052885,24.927766746553996 8.404328321065012,26.51020358061372 10.33766150372108,26.51020358061372 L20.181817550525295,26.51020358061372 C22.115150733181363,26.51020358061372 23.697587567241087,24.927766746553996 23.697587567241087,22.99443356389793 L23.697587567241087,7.525045490348447 C23.697587567241087,5.591712307692379 22.115150733181363,4.0092754736326555 20.181817550525295,4.0092754736326555 L10.33766150372108,4.0092754736326555 zM10.33766150372108,5.415583480318972 L20.181817550525295,5.415583480318972 C21.3550187546393,5.415583480318972 22.29127956055477,6.351844286234442 22.29127956055477,7.525045490348447 L22.29127956055477,22.99443356389793 C22.29127956055477,24.167634768011933 21.3550187546393,25.103895573927403 20.181817550525295,25.103895573927403 L10.33766150372108,25.103895573927403 C9.164460299607075,25.103895573927403 8.228199493691605,24.167634768011933 8.228199493691605,22.99443356389793 L8.228199493691605,7.525045490348447 C8.228199493691605,6.351844286234442 9.164460299607075,5.415583480318972 10.33766150372108,5.415583480318972 zM10.33766150372108,6.8218914870052885 C9.949520493875657,6.8218914870052885 9.634507500377921,7.1369044805030235 9.634507500377921,7.525045490348447 L9.634507500377921,10.33766150372108 C9.634507500377921,10.725802513566503 9.949520493875657,11.040815507064238 10.33766150372108,11.040815507064238 L20.181817550525295,11.040815507064238 C20.56995856037072,11.040815507064238 20.884971553868453,10.725802513566503 20.884971553868453,10.33766150372108 L20.884971553868453,7.525045490348447 C20.884971553868453,7.1369044805030235 20.56995856037072,6.8218914870052885 20.181817550525295,6.8218914870052885 L10.33766150372108,6.8218914870052885 zM11.040815507064238,12.447123513750554 A1.4063080066863165,1.4063080066863165 0 0 0 11.040815507064238,15.259739527123187 A1.4063080066863165,1.4063080066863165 0 0 0 11.040815507064238,12.447123513750554 zM15.259739527123187,12.447123513750554 A1.4063080066863165,1.4063080066863165 0 0 0 15.259739527123187,15.259739527123187 A1.4063080066863165,1.4063080066863165 0 0 0 15.259739527123187,12.447123513750554 zM19.478663547182137,12.447123513750554 A1.4063080066863165,1.4063080066863165 0 0 0 19.478663547182137,15.259739527123187 A1.4063080066863165,1.4063080066863165 0 0 0 19.478663547182137,12.447123513750554 zM11.040815507064238,16.666047533809504 A1.4063080066863165,1.4063080066863165 0 0 0 11.040815507064238,19.478663547182137 A1.4063080066863165,1.4063080066863165 0 0 0 11.040815507064238,16.666047533809504 zM15.259739527123187,16.666047533809504 A1.4063080066863165,1.4063080066863165 0 0 0 15.259739527123187,19.478663547182137 A1.4063080066863165,1.4063080066863165 0 0 0 15.259739527123187,16.666047533809504 zM19.478663547182137,16.666047533809504 A1.4063080066863165,1.4063080066863165 0 0 0 19.478663547182137,19.478663547182137 A1.4063080066863165,1.4063080066863165 0 0 0 19.478663547182137,16.666047533809504 zM11.040815507064238,20.884971553868453 C10.263830333370047,20.884971553868453 9.634507500377921,21.51429438686058 9.634507500377921,22.29127956055477 C9.634507500377921,23.06826473424896 10.263830333370047,23.697587567241087 11.040815507064238,23.697587567241087 L15.259739527123187,23.697587567241087 C16.03672470081738,23.697587567241087 16.666047533809504,23.06826473424896 16.666047533809504,22.29127956055477 C16.666047533809504,21.51429438686058 16.03672470081738,20.884971553868453 15.259739527123187,20.884971553868453 L11.040815507064238,20.884971553868453 zM19.478663547182137,20.884971553868453 A1.4063080066863165,1.4063080066863165 0 0 0 19.478663547182137,23.697587567241087 A1.4063080066863165,1.4063080066863165 0 0 0 19.478663547182137,20.884971553868453 z" id="svg_1" class="" fill="#ffffff" fill-opacity="1"/></g></svg>