<svg xmlns="http://www.w3.org/2000/svg" width="16" height="24"><rect id="backgroundrect" width="100%" height="100%" x="0" y="0" fill="none" stroke="none"/><g class="currentLayer" style=""><title>Layer 1</title><path d="M13,9.761000476837157 v-4.761 c0,-2.761 -2.238,-5 -5,-5 c-2.763,0 -5,2.239 -5,5 v4.761 c-1.827,1.466 -3,3.714 -3,6.239 c0,4.418 3.582,8 8,8 s8,-3.582 8,-8 c0,-2.525 -1.173,-4.773 -3,-6.239 zm-8,-4.761 c0,-1.6540000000000001 1.346,-3 3,-3 s3,1.346 3,3 v3.587 c-0.927,-0.37600000000000006 -1.9380000000000002,-0.5870000000000001 -3,-0.5870000000000001 s-2.073,0.21100000000000002 -3,0.5870000000000001 v-3.587 zm3,17 c-3.309,0 -6,-2.6910000000000003 -6,-6 s2.6910000000000003,-6 6,-6 s6,2.6910000000000003 6,6 s-2.6910000000000003,6 -6,6 zm2,-6 c0,1.104 -0.8960000000000001,2 -2,2 s-2,-0.8960000000000001 -2,-2 s0.8960000000000001,-2 2,-2 s2,0.8960000000000001 2,2 z" id="svg_1" class="selected" fill="#ffffff" fill-opacity="1"/></g></svg>