<svg xmlns="http://www.w3.org/2000/svg" fill="#000000" width="30.259739770758983" height="30.259739770758983" style=""><rect id="backgroundrect" width="100%" height="100%" x="0" y="0" fill="none" stroke="none"/><g class="currentLayer" style=""><title>Layer 1</title><path d="M15.043588371994977,1.0543897715596628 A0.5861099500060082,0.6185852712452412 0 0 0 14.704777438241129,1.1836515171451283 L1.2255962717756088,12.284455905285334 A0.5863829913275838,0.6188734413061082 0 0 0 1.9467141668380554,13.260562557218769 L2.758257909049874,12.592509019976475 L2.758257909049874,28.854118122739173 A0.5861099500060082,0.6185852712452412 0 0 0 3.344309253921395,29.472641541642524 L11.450589623775965,29.472641541642524 A0.5861099500060082,0.6185852712452412 0 0 0 11.641743163035398,29.472641541642524 L18.483205762234217,29.472641541642524 A0.5861099500060082,0.6185852712452412 0 0 0 18.67435930149365,29.472641541642524 L26.786363048782235,29.472641541642524 A0.5861099500060082,0.6185852712452412 0 0 0 27.372414393653756,28.854118122739173 L27.372414393653756,12.592509019976475 L28.183958370286113,13.260562557218769 A0.5863828741173147,0.6188733176014244 0 1 0 28.905075796507482,12.284455905285334 L24.44215766929615,8.609556534549036 L24.44215766929615,4.11318136660514 L20.925849600067025,4.11318136660514 L20.925849600067025,5.712644270175524 L15.425894864462501,1.1836515171451283 A0.5861099500060082,0.6185852712452412 0 0 0 15.043588371994977,1.0543897715596628 zM15.065336151351815,2.456939930602027 L26.200311703910714,11.627274772700524 L26.200311703910714,28.235594703835822 L19.167695565452462,28.235594703835822 L19.167695565452462,16.483649744672157 L10.962976737251168,16.483649744672157 L10.962976737251168,28.235594703835822 L3.930360598792916,28.235594703835822 L3.930360598792916,11.627274772700524 L15.065336151351815,2.456939930602027 zM22.097952289810067,5.350228204411842 L23.27005497955311,5.350228204411842 L23.27005497955311,7.644321668749668 L22.097952289810067,6.677878826713181 L22.097952289810067,5.350228204411842 zM12.13507942699421,17.72069658247886 L17.99559287570942,17.72069658247886 L17.99559287570942,28.235594703835822 L12.13507942699421,28.235594703835822 L12.13507942699421,17.72069658247886 z" id="svg_1" class="selected" stroke="none" fill="#ffffff" fill-opacity="1"/></g></svg>