<svg xmlns="http://www.w3.org/2000/svg" width="24" height="24" fill-rule="evenodd" clip-rule="evenodd" style=""><rect id="backgroundrect" width="100%" height="100%" x="0" y="0" fill="none" stroke="none"/><g class="currentLayer" style=""><title>Layer 1</title><path d="M15.509258419394492,16.24979597132625 c-1.568510225236416,1.4138027401566504 -3.6449456273913388,2.274013636112213 -5.9208232091069215,2.274013636112213 c-4.886333399236203,0 -8.853741616010666,-3.9674082167744635 -8.853741616010666,-8.853741616010666 s3.9674082167744635,-8.853741616010666 8.853741616010666,-8.853741616010666 s8.853741616010666,3.9674082167744635 8.853741616010666,8.853741616010666 c0,2.275877581715584 -0.8602108959555627,4.352312983870506 -2.274013636112213,5.9208232091069215 l6.93387764453888,6.93387764453888 l-0.6589047707915306,0.6589047707915306 l-6.93387764453888,-6.93387764453888 zm-5.9208232091069215,-14.501496794223787 c4.3718844127058984,0 7.921768814325333,3.5498844016194346 7.921768814325333,7.921768814325333 s-3.5498844016194346,7.921768814325333 -7.921768814325333,7.921768814325333 s-7.921768814325333,-3.5498844016194346 -7.921768814325333,-7.921768814325333 s3.5498844016194346,-7.921768814325333 7.921768814325333,-7.921768814325333 z" id="svg_1" class="" stroke="#eb1a1a" stroke-opacity="1" stroke-width="1"/></g></svg>