<?xml version="1.0" encoding="UTF-8"?>
<svg width="18px" height="15px" viewBox="0 0 18 15" version="1.1" xmlns="http://www.w3.org/2000/svg" xmlns:xlink="http://www.w3.org/1999/xlink">
    <title>icon/plus/default copy</title>
    <g id="Shopping-Cart" stroke="none" stroke-width="1" fill="none" fill-rule="evenodd" stroke-linecap="round" stroke-linejoin="round">
        <g id="Group-20-Copy-6" transform="translate(-483.000000, -302.000000)" fill="#ad1111" stroke="#ad1111" stroke-width="1.50695234">
            <g id="Group-9-Copy" transform="translate(24.000000, 100.000000)">
                <g id="Group-16-Copy-2" transform="translate(40.000000, 127.000000)">
                    <g id="Path" transform="translate(416.000000, 70.000000)">
                        <path d="M18.7662505,7.14929429 C17.9766846,6.41343211 16.9055809,6 15.788704,6 C14.6718271,6 13.6007234,6.41343211 12.8111576,7.14929429 L11.9997953,7.90511547 L11.188433,7.14929429 C9.54397949,5.61741045 6.87779361,5.61741047 5.23334013,7.14929433 C3.58888664,8.6811782 3.58888662,11.1648527 5.23334008,12.6967366 L6.04470236,13.4525577 L11.9997953,19 L17.9548882,13.4525577 L18.7662505,12.6967366 C19.5561871,11.9612197 20,10.9634375 20,9.92301542 C20,8.88259332 19.5561871,7.88481112 18.7662505,7.14929429 Z"></path>
                    </g>
                </g>
            </g>
        </g>
    </g>
</svg>