<?xml version="1.0" encoding="UTF-8"?>
<svg width="17px" height="18px" viewBox="0 0 17 18" version="1.1" xmlns="http://www.w3.org/2000/svg" xmlns:xlink="http://www.w3.org/1999/xlink">
    <title>icon_deleteSVG</title>
    <defs>
        <filter color-interpolation-filters="auto" id="filter-1">
            <feColorMatrix in="SourceGraphic" type="matrix" values="0 0 0 0 0.447059 0 0 0 0 0.447059 0 0 0 0 0.447059 0 0 0 1.000000 0"></feColorMatrix>
        </filter>
    </defs>
    <g id="My-Account" stroke="none" stroke-width="1" fill="none" fill-rule="evenodd">
        <g id="B02" transform="translate(-1190.000000, -412.000000)">
            <g id="Group-5" transform="translate(481.000000, 381.000000)">
                <g id="icon_delete" transform="translate(706.000000, 28.000000)" filter="url(#filter-1)">
                    <g id="icon/delete">
                        <rect id="Rectangle" x="0" y="0" width="24" height="24"></rect>
                        <g id="noun_Delete_3774418" transform="translate(3.000000, 3.000000)" fill="#242424" fill-rule="nonzero">
                            <path d="M14.6285,16.2900001 L15.1488214,6.0000007 L15.1785714,6.0000007 C16.1845187,6.0000007 17,5.19411355 17,4.20000108 C17,3.2058886 16.1845187,2.40000122 15.1785714,2.40000122 L12.0092857,2.40000122 L11.7476071,1.3632013 C11.5447731,0.561870175 10.816069,-0.000183292291 9.98021429,7.00982525e-07 L7.04771429,7.00982525e-07 C6.22309099,-0.000714657784 5.50085207,0.546159331 5.287,1.3332013 L4.99860714,2.40000122 L1.82142857,2.40000122 C0.815481349,2.40000122 0,3.2058886 0,4.20000108 C0,5.19411355 0.815481349,6.0000007 1.82142857,6.0000007 L1.85117857,6.0000007 L2.3715,16.2894001 C2.41968851,17.2470464 3.21904174,17.9992657 4.18928571,18.0000007 L12.8107143,18.0000007 C13.780735,17.9992818 14.5799992,17.24741 14.6285,16.2900001 Z M6.46182143,1.64400128 C6.53316097,1.38217167 6.77333129,1.20016635 7.04771429,1.20000115 L9.98021429,1.20000115 C10.2591013,1.19980186 10.5022594,1.38738727 10.56975,1.65480127 L10.7585714,2.40000122 L6.25357143,2.40000122 L6.46182143,1.64400128 Z M1.21428571,4.20000108 C1.21428571,3.86863025 1.48611283,3.60000112 1.82142857,3.60000112 L15.1785714,3.60000112 C15.5138872,3.60000112 15.7857143,3.86863025 15.7857143,4.20000108 C15.7857143,4.5313719 15.5138872,4.80000103 15.1785714,4.80000103 L1.82142857,4.80000103 C1.48611283,4.80000103 1.21428571,4.5313719 1.21428571,4.20000108 Z M3.58214286,16.2300001 L3.06667857,6.00000094 L13.9345357,6.00000094 L13.4178571,16.2306001 C13.4013545,16.5499638 13.1343007,16.8004162 12.8107143,16.8000006 L4.18928571,16.8000006 C3.86547609,16.8004003 3.5983331,16.5496002 3.58214286,16.2300001 Z" id="Shape"></path>
                            <path d="M11.5660714,8.40000075 C11.4049956,8.39184222 11.2472543,8.44735602 11.127654,8.55429275 C11.0080537,8.66122948 10.9364244,8.81079995 10.9285714,8.9700007 L10.6857143,13.7700003 C10.6689485,14.1013712 10.9271843,14.3834317 11.2625,14.4000003 C11.5978157,14.4165688 11.8832342,14.1613711 11.9,13.8300003 L12.1428571,9.0300007 C12.1511128,8.87081985 12.0949381,8.71493436 11.9867283,8.59674113 C11.8785185,8.4785479 11.7271674,8.4077613 11.5660714,8.40000075 Z" id="Path"></path>
                            <path d="M5.43392857,8.40000075 C5.27283256,8.4077613 5.12148148,8.4785479 5.01327168,8.59674113 C4.90506188,8.71493436 4.8488872,8.87081985 4.85714286,9.0300007 L5.1,13.8300003 C5.12147022,14.1591468 5.40395458,14.4117211 5.7375,14.4000003 C5.89859601,14.3922397 6.04994709,14.3214531 6.15815689,14.2032599 C6.26636669,14.0850667 6.32254137,13.9291812 6.31428571,13.7700003 L6.07142857,8.9700007 C6.05311883,8.63935535 5.76866787,8.38502276 5.43392857,8.40000075 L5.43392857,8.40000075 Z" id="Path"></path>
                            <path d="M8.5,8.40000075 C8.16468426,8.40000075 7.89285714,8.66862988 7.89285714,9.0000007 L7.89285714,13.8000003 C7.89285714,14.1313712 8.16468426,14.4000007 8.5,14.4000007 C8.83531574,14.4000007 9.10714286,14.1313712 9.10714286,13.8000003 L9.10714286,9.0000007 C9.10714286,8.66862988 8.83531574,8.40000075 8.5,8.40000075 Z" id="Path"></path>
                        </g>
                    </g>
                </g>
            </g>
        </g>
    </g>
</svg>