<?xml version="1.0" encoding="UTF-8"?>
<svg width="24px" height="24px" viewBox="0 0 24 24" version="1.1" xmlns="http://www.w3.org/2000/svg" xmlns:xlink="http://www.w3.org/1999/xlink">
    <title>icon_profile</title>
    <g id="App-UI" stroke="none" stroke-width="1" fill="none" fill-rule="evenodd">
        <g id="icon_profile">
            <circle id="Oval" fill="#141820" cx="11.8928571" cy="12.2357143" r="9.92142857"></circle>
            <path d="M12,0 C5.376,0 0,5.376 0,12 C0,18.624 5.376,24 12,24 C18.624,24 24,18.624 24,12 C24,5.376 18.624,0 12,0 Z M12,4.8 C13.728,4.8 15.1200429,6.192 15.1200429,7.92004286 C15.1200429,9.64804286 13.7280429,11.0400857 12,11.0400857 C10.2719571,11.0400857 8.87995714,9.64808571 8.87995714,7.92004286 C8.87995714,6.19204286 10.2719571,4.8 12,4.8 Z M17.496,19.2 L6.504,19.2 C5.68804286,19.2 5.112,18.4319143 5.28004286,17.664 C5.99991429,14.592 8.73591429,12.312 12.0000429,12.312 C15.2641714,12.312 18.0000429,14.5919571 18.7200429,17.664 C18.8879571,18.4319143 18.3120643,19.2 17.4959571,19.2 L17.496,19.2 Z" id="Shape" fill="#54617B" fill-rule="nonzero"></path>
        </g>
    </g>
</svg>